<svg xmlns="http://www.w3.org/2000/svg" width="192" height="192" viewBox="0 0 192 192">
  <rect width="192" height="192" rx="24" fill="#1e40af"/>
  <path d="M96 32C67.28 32 44 55.28 44 84c0 20.24 11.52 37.76 28.32 46.48L96 160l23.68-29.52C136.48 121.76 148 104.24 148 84c0-28.72-23.28-52-52-52zm0 16c8.84 0 16 7.16 16 16s-7.16 16-16 16-16-7.16-16-16 7.16-16 16-16zm24 72h-48v-8c0-8 16-12.4 24-12.4s24 4.4 24 12.4v8z" fill="#60a5fa"/>
  <path d="M96 40c-24.26 0-44 19.74-44 44 0 17.6 10.4 32.8 25.36 39.84L96 148l18.64-24.16C129.6 116.8 140 101.6 140 84c0-24.26-19.74-44-44-44zm0 8a8 8 0 110 16 8 8 0 010-16z" fill="none" stroke="#93c5fd" stroke-width="2"/>
  <circle cx="96" cy="64" r="12" fill="#dbeafe"/>
  <path d="M76 108c0-5.33 10.67-8 20-8s20 2.67 20 8v4H76v-4z" fill="#dbeafe"/>
  <path d="M60 72l-8-8m80 8l8-8M96 44V32" stroke="#93c5fd" stroke-width="3" stroke-linecap="round"/>
</svg>